<?xml version="1.0" encoding="UTF-8" standalone="no"?>
<!-- Created with Inkscape (http://www.inkscape.org/) -->

<svg
   width="1920"
   height="683"
   viewBox="0 0 508 180.71153"
   version="1.1"
   id="svg5"
   inkscape:version="1.1.1 (3bf5ae0d25, 2021-09-20, custom)"
   sodipodi:docname="logo.svg"
   inkscape:export-filename="/run/media/alonsobc/The Vault/fisiovive/src/img/logo/logo.png"
   inkscape:export-xdpi="96"
   inkscape:export-ydpi="96"
   xmlns:inkscape="http://www.inkscape.org/namespaces/inkscape"
   xmlns:sodipodi="http://sodipodi.sourceforge.net/DTD/sodipodi-0.dtd"
   xmlns="http://www.w3.org/2000/svg"
   xmlns:svg="http://www.w3.org/2000/svg">
  <sodipodi:namedview
     id="namedview7"
     pagecolor="#ffffff"
     bordercolor="#666666"
     borderopacity="1.0"
     inkscape:pageshadow="2"
     inkscape:pageopacity="0.0"
     inkscape:pagecheckerboard="0"
     inkscape:document-units="mm"
     showgrid="false"
     units="px"
     width="1920px"
     inkscape:zoom="0.5"
     inkscape:cx="618"
     inkscape:cy="82"
     inkscape:window-width="1920"
     inkscape:window-height="997"
     inkscape:window-x="1366"
     inkscape:window-y="0"
     inkscape:window-maximized="1"
     inkscape:current-layer="layer1" />
  <defs
     id="defs2" />
  <g
     inkscape:label="Layer 1"
     inkscape:groupmode="layer"
     id="layer1">
    <path
       style="fill:#000000;stroke-width:1.75156"
       d="m 185.52098,154.13828 c -14.51652,-5.1697 -21.50099,-17.90982 -20.00895,-36.49755 0.48663,-6.06232 2.28397,-13.72814 3.9941,-17.03517 l 3.10933,-6.012776 1.57049,4.245454 c 1.04117,2.814542 0.81981,6.048512 -0.65675,9.595042 -3.00605,7.22019 -2.59805,23.41255 0.75279,29.87554 11.54339,22.26455 40.59754,16.64691 52.1862,-10.09024 9.13911,-21.08556 1.90468,-43.642671 -15.38893,-47.983094 -5.81191,-1.458692 -16.68179,2.055743 -23.12383,7.476364 l -5.33361,4.487938 v -4.620235 c 0,-8.772573 19.67145,-14.328108 32.0222,-9.043581 6.81615,2.916441 14.37478,10.697403 16.91,17.407444 2.36615,6.262504 2.382,21.154974 0.0315,29.618224 -5.6163,20.22259 -28.92308,34.68118 -46.06459,28.57664 z m 297.41117,-15.55466 c 15.7742,-50.682579 -23.7254,-91.879609 -53.34304,-96.941441 -15.31827,-1.814222 -8.61712,-0.456894 7.2861,-1.942345 28.83972,-3.466869 79.66334,48.46926 43.09959,105.526846 z M 7.4659649,118.16176 V 88.385267 H 24.98155 c 10.509351,0 17.515585,0.700623 17.515585,1.751558 0,1.037961 -6.422382,1.751558 -15.764026,1.751558 H 10.969082 v 12.260907 12.26091 h 13.033317 c 7.168325,0 13.520452,0.7882 14.11584,1.75156 0.687476,1.11236 -4.068781,1.75156 -13.033317,1.75156 h -14.11584 v 14.01246 c 0,8.17394 -0.729816,14.01247 -1.7515586,14.01247 -1.0990171,0 -1.7515585,-11.0932 -1.7515585,-29.77649 z m 52.5467551,0 c 0,-18.683291 0.652542,-29.776493 1.751559,-29.776493 1.099017,0 1.751558,11.093202 1.751558,29.776493 0,18.68329 -0.652541,29.77649 -1.751558,29.77649 -1.099017,0 -1.751559,-11.0932 -1.751559,-29.77649 z m 30.214385,25.91684 c -4.094268,-2.09608 -7.821998,-4.5473 -7.444124,-5.23038 1.24076,-2.24291 2.038461,-2.2497 9.671157,1.60017 9.201312,4.64106 26.724832,4.80767 30.698172,-4.92704 2.27181,-5.56596 -2.77713,-13.30403 -20.50987,-17.20405 -15.237538,-3.35124 -18.406755,-8.66501 -18.459871,-14.74467 -0.09381,-10.73719 7.423917,-14.919673 15.030924,-16.346757 4.455287,-0.835817 10.104127,0.17635 16.612377,2.976122 4.94699,2.128135 9.49248,4.595356 8.99452,5.405199 -1.15875,1.884483 -1.76864,2.049734 -11.20967,-2.126484 -13.36321,-5.911182 -25.573064,-0.952409 -25.573064,9.75242 0,5.41981 5.160962,8.93955 16.753324,11.42567 10.85229,2.32739 19.61114,7.52961 21.58606,12.66053 6.43464,16.71743 -17.39132,26.36284 -36.149935,16.75927 z m 53.860425,-25.91684 c 0,-18.683291 0.65254,-29.776493 1.75156,-29.776493 1.09901,0 1.75156,11.093202 1.75156,29.776493 0,18.68329 -0.65255,29.77649 -1.75156,29.77649 -1.09902,0 -1.75156,-11.0932 -1.75156,-29.77649 z m 136.88938,26.71126 c -2.16087,-4.12171 -23.03808,-54.527113 -23.03808,-55.622552 0,-0.47586 1.06297,-0.980204 1.93768,-0.980204 0.87471,0 6.13354,11.740976 12.11077,25.950486 5.97723,14.20952 11.08307,26.07392 11.34633,26.36533 0.26326,0.29142 5.38305,-11.13898 11.38513,-25.39759 13.11781,-31.162803 10.57989,-26.239951 13.33307,-26.317732 2.81977,-0.07966 -22.40648,59.023782 -24.21587,59.049612 -0.68863,0.01 -1.97518,-1.36147 -2.85903,-3.04735 z m 41.76959,-26.71126 c 0,-18.683291 0.65254,-29.776493 1.75156,-29.776493 1.09901,0 1.75155,11.093202 1.75155,29.776493 0,18.68329 -0.65254,29.77649 -1.75155,29.77649 -1.09902,0 -1.75156,-11.0932 -1.75156,-29.77649 z m 34.23442,0.87581 c -6.58966,-15.93215 -12.25404,-28.821688 -10.8469,-30.101857 2.31573,-2.106775 1.12634,-2.644916 12.59821,24.847147 5.62112,13.47088 10.63016,25.09671 11.21737,25.79936 0.58721,0.70264 5.70416,-9.93808 11.37099,-23.64604 10.34818,-25.032004 11.07991,-28.809654 14.11073,-27.26384 1.86261,0.949991 -22.80138,58.1102 -24.85883,58.79601 -0.8857,0.29524 -7.00189,-12.49861 -13.59157,-28.43078 z m 55.09506,-0.87581 V 88.385267 h 16.63981 c 9.9255,0 16.6398,0.706769 16.6398,1.751558 0,1.030328 -6.13045,1.751558 -14.88824,1.751558 H 415.5791 v 12.260907 12.26091 h 13.13669 c 7.59008,0 13.13669,0.73955 13.13669,1.75156 0,1.01201 -5.54661,1.75156 -13.13669,1.75156 H 415.5791 v 12.26091 12.2609 h 14.88825 c 8.75779,0 14.88824,0.72123 14.88824,1.75156 0,1.04479 -6.7143,1.75156 -16.6398,1.75156 H 412.07598 Z M 233.68596,137.4289 c 2.06303,-5.29846 4.00592,-12.56673 6.10331,-18.39136 18.50906,-33.578761 -4.57721,20.0789 -9.85427,28.02493 z m -3.75096,9.63357 c 22.63945,-52.490609 1.32106,-61.316973 -7.46523,-67.233482 -3.13091,-2.005087 -4.51026,-3.641582 -3.06523,-3.636654 48.56937,10.573015 34.66512,42.617956 10.53046,70.870136 z M 181.9412,108.0903 c -8.49333,-14.697997 -5.61381,-18.360568 -4.82215,-15.675845 2.03822,-1.866405 1.45977,20.467055 -2.98794,-9.377845 -1.82052,-12.216026 8.43518,-30.277431 25.48883,-39.060305 4.99821,-2.574153 4.65039,-1.928176 -3.17568,5.897898 -16.00098,16.000966 -20.7779,35.673703 -12.90781,55.864377 1.97139,5.05763 3.59489,8.61825 3.21943,8.61825 -0.37545,0 -2.4863,-2.65394 -4.81468,-6.26653 z M 134.53906,86.79828 c -1.44771,-2.799556 -4.79844,-6.838502 -7.92699,-7.433809 -2.66784,-0.684566 -50.53355,-21.798577 -0.66286,-8.236177 4.53199,2.108923 7.94266,5.162609 9.07824,8.128061 4.76059,12.431732 4.45784,17.106882 -0.48839,7.541925 z M 39.869797,83.130592 c -0.595388,-0.963357 0.618467,-1.751559 2.697453,-1.751559 2.078988,0 13.17733,-3.152805 24.662986,-7.006233 11.485656,-3.853428 23.756075,-7.006234 27.267597,-7.006234 12.188467,-1.397059 13.155247,-2.787899 32.114237,11.997905 L 105.79545,76.263036 C 97.791079,75.070478 84.243134,79.297327 75.802136,81.279039 59.478618,85.111345 41.661389,86.029447 39.869797,83.130592 Z M 10.032492,81.50166 C 5.6255407,79.668708 1.3207261,74.67951 2.8374703,73.162766 c 0.6189577,-0.618957 1.1253776,-0.22605 1.1253776,0.873127 0,1.099178 2.4455456,3.263146 5.434546,4.808818 4.4745981,2.313904 6.3309501,2.439009 10.5093521,0.70826 4.093493,-1.695581 5.074804,-3.178665 5.074804,-7.669696 0,-3.062204 -0.945842,-6.513485 -2.10187,-7.669514 -3.850415,-3.850413 -18.3106057,-2.02224 -15.998615,2.022674 0.6305961,1.10325 0.5069536,1.427012 -0.2747612,0.719468 C 5.8245892,66.248358 4.8627012,68.72814 4.6145568,70.831719 4.0572684,75.555983 2.0059699,75.647521 2.357399,72.120163 2.55489,70.13791 3.9236129,63.753977 5.4181586,62.549781 9.5416381,59.227381 20.453764,59.828028 23.8343,63.56348 c 3.419067,3.778023 3.834514,13.106932 0.699562,15.708711 -3.352544,2.782364 -10.521946,3.884602 -14.50137,2.229469 z M 187.10223,72.047992 c -124.735863,-48.031995 -62.36793,-24.015997 0,0 z M 495.01476,1.3595307 c -330.01088,-0.9063538 -165.00544,-0.4531769 0,0 z M 468.12585,41.093191 c -4.24898,-4.248981 -4.6642,-14.352716 -0.75066,-18.26625 9.45002,-9.450034 24.80307,6.052089 18.20463,18.381399 -2.48173,4.637148 -12.76955,4.569275 -17.45397,-0.115149 z m 16.72077,-4.194462 c 1.3859,-7.387463 -1.23769,-12.572255 -7.1072,-14.045408 -6.25401,-1.569656 -10.03137,1.071346 -10.73581,7.506107 -0.80344,7.338928 3.75781,12.485322 11.06572,12.485322 5.05042,0 5.78226,-0.642078 6.77729,-5.946021 z M 210.35321,36.771694 c -3.51342,-4.39153 -5.06176,-9.562659 -2.52645,-15.630513 3.16575,-7.576684 9.53976,-9.811179 15.96945,-5.598293 5.67589,3.718989 5.19725,14.462114 -0.0954,19.754808 -3.91803,3.918028 -10.6653,4.826623 -13.34755,1.473998 z m 13.30512,-1.934069 c 5.32713,-5.327137 2.02904,-20.017809 -4.49405,-20.017809 -6.87351,0 -12.87787,9.111358 -10.98208,16.664831 1.52225,6.065075 10.76216,8.066949 15.47613,3.352978 z"
       id="path1297"
       sodipodi:nodetypes="csscsssssscsssccccccccscssscccssscsssssssssssssssssssssssssssssssssscssssssssssssssccssscccssscccsssccsccscccccccsssscsccsssssccssssssssssssssssssccccsssssssssssssssssss" />
    <ellipse
       style="opacity:1;fill:#236db9;fill-opacity:1;stroke-width:0.282013"
       id="path2540"
       cx="14.658205"
       cy="71.206192"
       rx="13.371852"
       ry="12.008446" />
    <ellipse
       style="fill:#236db9;fill-opacity:1;stroke-width:0.272803"
       id="path2540-3"
       cx="218.16402"
       cy="-15.939225"
       rx="11.121982"
       ry="13.509868"
       transform="rotate(11.152883)" />
    <ellipse
       style="fill:#236db9;fill-opacity:1;stroke-width:0.28029"
       id="path2540-3-6"
       transform="matrix(-0.86278323,0.50557403,0.52110616,0.85349187,0,0)"
       ry="15.286378"
       rx="11.34431"
       cy="269.22992"
       cx="-388.61475" />
    <path
       style="opacity:1;fill:#236db9;fill-opacity:1;fill-rule:evenodd;stroke-width:0.5"
       d="m 519.27589,345.64972 c -31.3253,-41.6925 -99.59969,-59.58348 -150.03921,-56.4174 -15.63325,2.1094 -29.63207,4.89944 -62.38965,13.09254 -32.12116,8.03391 -46.60506,11.02832 -69.01678,14.17285 -49.69819,6.97303 -88.23808,4.8683 -88.23808,-4.17296 0,-2.60795 2.767,-4.5892 12.27647,-5.69188 11.24348,-1.30375 44.60499,-10.34157 88.03206,-24.59406 45.32253,-14.87458 80.19718,-25.84014 97.75047,-27.9275 55.81,-8.02646 115.01636,3.13601 141.20326,21.85471 9.35859,6.18374 16.34543,13.07214 19.74677,19.80849 6.58248,13.03658 13.53878,36.00529 14.4996,46.31564 0.29774,3.19494 -0.1727,5.41441 -1.12192,5.41441 -0.35331,0 -1.86197,-0.96109 -2.70299,-1.85484 z"
       id="path22214"
       transform="matrix(0.26458496,0,0,0.26458496,-0.00156486,0)"
       sodipodi:nodetypes="ccsssssccsssc" />
    <path
       style="opacity:1;fill:#236db9;fill-opacity:1;fill-rule:evenodd;stroke-width:0.25"
       d="m 704.79829,431.98127 c -4.19638,-4.2899 -15.25127,-19.68475 -20.07433,-28.35627 -8.68321,-15.61177 -14.88034,-29.28839 -17.83683,-40.06493 -2.44385,-8.90791 -8.23847,-44.4561 -9.16462,-54.56007 -0.38087,-4.15507 -0.40072,-13.0654 0.23999,-17.88376 5.08165,-38.2155 31.39729,-79.42055 69.03522,-107.76774 8.71643,-6.56482 18.17134,-12.53383 27.95439,-17.54682 8.36669,-4.28724 12.10005,-5.45217 12.10005,-4.39876 0,1.60996 -3.65,6.47087 -16.62043,19.60306 -11.09328,11.23163 -15.16055,14.89839 -19.30761,19.62463 -20.42558,23.27817 -34.43237,48.07434 -42.54345,74.50982 -5.38005,17.53456 -8.1054,34.84845 -7.75487,53.73457 0.28308,15.25228 2.01658,28.08822 5.8409,43.25 2.41807,9.58659 4.58129,16.28887 9.07758,28.125 6.62626,17.4431 11.18879,30.22658 10.55202,32.48095 l -0.17133,0.60657 z"
       id="path24117"
       transform="matrix(0.26458496,0,0,0.26458496,-0.00156486,0)"
       sodipodi:nodetypes="ssssssssssssssscs" />
    <path
       style="opacity:1;fill:#236db9;fill-opacity:1;fill-rule:evenodd;stroke-width:0.25"
       d="m 706.38457,293.14118 c -2.08646,-0.77661 -2.68646,-2.76221 -2.06907,-6.84723 0.445,-2.94436 3.14898,-15.04907 4.67293,-20.91895 4.6432,-17.88451 13.46971,-36.63863 22.7771,-48.39568 4.65867,-5.88481 13.92058,-13.94107 15.38246,-13.38009 0.71255,0.27343 -0.0772,2.77104 -2.89336,9.15077 -4.51961,10.23858 -11.41771,33.69301 -13.85976,47.125 -1.25143,6.88317 -1.50067,9.44567 -1.49548,15.375 0.005,5.28942 0.044,5.76647 0.6596,7.99626 0.66425,2.40589 0.61819,3.00374 -0.23138,3.00374 -0.19864,0 -2.18174,0.80122 -4.40689,1.78049 -10.3908,4.57293 -15.90001,6.09189 -18.53615,5.11069 z"
       id="path24156"
       transform="matrix(0.26458496,0,0,0.26458496,-0.00156486,0)" />
    <path
       style="opacity:1;fill:#236db9;fill-opacity:1;fill-rule:evenodd;stroke-width:0.5"
       d="m 871,552.08801 c 0,-0.25906 3.00935,-8.20359 6.68746,-17.65451 7.88076,-20.24971 10.17198,-26.62138 14.83844,-41.2642 7.07698,-22.20681 11.93212,-44.83529 14.03627,-65.4193 0.91894,-8.98952 0.78215,-29.59276 -0.24895,-37.5 C 902.67588,362.35646 892.11291,341.21682 873.5,324.58101 867.01732,318.78693 861.40163,314.6829 848.62269,306.40027 833.47422,296.58185 827.5,291.78889 827.5,289.45411 c 0,-1.38844 1.87925,-1.24723 10.24667,0.76993 43.41377,10.46591 75.64137,26.97189 93.74042,48.01096 26.42197,30.71395 27.2382,70.86592 2.48306,122.14628 -12.71228,26.33354 -30.17837,52.62222 -55.64485,83.75258 -6.45268,7.88779 -7.3253,8.83532 -7.3253,7.95415 z"
       id="path24195"
       transform="matrix(0.26458496,0,0,0.26458496,-0.00156486,0)" />
    <path
       style="opacity:1;fill:#236db9;fill-opacity:1;fill-rule:evenodd;stroke-width:0.5"
       d="m 1805.7274,562.125 c 0.1839,-0.48125 4.6798,-9.20833 9.9908,-19.3935 6.6225,-12.70037 10.0554,-19.84795 10.9266,-22.75 5.6361,-18.77392 9.4606,-38.73606 11.4439,-59.7315 0.8704,-9.21395 0.8732,-38.2417 0,-47.5 -3.9678,-42.29044 -16.6768,-81.46148 -37.8462,-118.38812 -39.4135,-68.75072 -106.055,-121.80964 -170.6608,-135.79121 -2.0398,-0.44145 -10.8055,-1.50269 -19.6024,-2.5605 l -20.7887,-2.56346 13.5458,-0.82979 c 23.2588,-1.42479 28.1323,-1.00989 36.4948,-1.68006 20.3537,-1.63115 22.2823,-1.90011 28.9575,-1.42307 64.2802,4.59379 139.1524,65.68719 174.1793,141.74921 28.0628,60.93922 30.9746,124.04578 9.6554,186.31572 -4.195,12.25295 -7.8829,20.97806 -14.338,33.92128 -8.2625,16.56733 -16.9039,30.87557 -27.555,45.625 -4.1157,5.69937 -5.1027,6.81896 -4.4075,5 z"
       id="path24234"
       transform="matrix(0.26458496,0,0,0.26458496,-0.00156486,0)"
       sodipodi:nodetypes="cssscssscssssssscc" />
    <path
       style="opacity:1;fill:#236db9;fill-opacity:1;fill-rule:evenodd;stroke-width:0.5"
       d="m 1865.1977,200.29414 c -0.5131,-1.33735 1.3334,-6.40196 5.6675,-15.54414 5.2564,-11.08779 7.5167,-17.32235 10.0945,-27.84328 5.4507,-22.24602 7.7219,-43.01071 7.7558,-70.90672 0.023,-18.6655 -0.2679,-23.674815 -2.0159,-34.75 -1.7332,-10.981645 -3.1529,-15.349855 -10.0755,-31 -3.9044,-8.82679 -5.9208,-14.1199688 -5.5284,-14.5123258 0.5325,-0.5325706 11.248,8.2234818 15.6771,12.8104698 12.5158,12.96181 19.5783,28.847645 21.7841,48.999651 0.723,6.60514 0.2799,24.84044 -0.7764,31.952205 -2.7012,18.18592 -8.2185,37.74465 -16.282,57.71894 -7.812,19.35138 -12.3951,27.95766 -20.2759,38.07472 -3.5408,4.54555 -5.5572,6.21912 -6.0249,5.00048 z"
       id="path24273"
       transform="matrix(0.26458496,0,0,0.26458496,-0.00156486,0)" />
  </g>
  <g
     inkscape:groupmode="layer"
     id="layer2"
     inkscape:label="Layer 2">
    <rect
       style="opacity:1;fill:#000000;fill-opacity:1;stroke-width:0.264585"
       id="rect20772"
       width="4.0492706"
       height="59.762131"
       x="7.4659648"
       y="88.385262" />
    <rect
       style="opacity:1;fill:#000000;fill-opacity:1;stroke-width:0.264585"
       id="rect20774"
       width="35.180313"
       height="3.8023424"
       x="7.4659648"
       y="88.385262" />
    <rect
       style="opacity:1;fill:#000000;fill-opacity:1;stroke-width:0.264585"
       id="rect20776"
       width="27.306166"
       height="3.6188819"
       x="10.969082"
       y="116.41019" />
    <rect
       style="opacity:1;fill:#000000;fill-opacity:1;stroke-width:0.270354"
       id="rect20778"
       width="3.5025656"
       height="30.042643"
       x="60.012718"
       y="118.15674" />
    <rect
       style="fill:#000000;fill-opacity:1;stroke-width:0.270354"
       id="rect20778-7"
       width="3.5025656"
       height="30.042643"
       x="60.000298"
       y="88.411819" />
    <rect
       style="fill:#000000;fill-opacity:1;stroke-width:0.270354"
       id="rect20778-5"
       width="3.5025656"
       height="30.042643"
       x="144.08752"
       y="118.16176" />
    <rect
       style="fill:#000000;fill-opacity:1;stroke-width:0.270354"
       id="rect20778-7-3"
       width="3.5025656"
       height="30.042643"
       x="144.0751"
       y="88.41684" />
    <rect
       style="fill:#000000;fill-opacity:1;stroke-width:0.270354"
       id="rect20778-56"
       width="3.5025656"
       height="30.042643"
       x="322.74649"
       y="118.16176" />
    <rect
       style="fill:#000000;fill-opacity:1;stroke-width:0.270354"
       id="rect20778-7-2"
       width="3.5025656"
       height="30.042643"
       x="322.73407"
       y="88.41684" />
    <rect
       style="fill:#000000;fill-opacity:1;stroke-width:0.270354"
       id="rect20778-9"
       width="3.5025656"
       height="30.042643"
       x="412.07599"
       y="118.16176" />
    <rect
       style="fill:#000000;fill-opacity:1;stroke-width:0.270354"
       id="rect20778-7-1"
       width="3.5025656"
       height="30.042643"
       x="412.06357"
       y="88.416832" />
    <rect
       style="opacity:1;fill:#000000;fill-opacity:1;stroke-width:0.264585"
       id="rect20992"
       width="33.57436"
       height="3.7664402"
       x="412.07599"
       y="88.385262"
       ry="0.3072916" />
    <rect
       style="opacity:1;fill:#000000;fill-opacity:1;stroke-width:0.264585"
       id="rect20994"
       width="26.55304"
       height="3.4775689"
       x="415.57907"
       y="116.41019"
       ry="0.3072916" />
    <rect
       style="opacity:1;fill:#000000;fill-opacity:1;stroke-width:0.266536"
       id="rect20996"
       width="31.064102"
       height="3.8859804"
       x="414.43069"
       y="144.33687"
       ry="0.3072916" />
  </g>
</svg>
