<?xml version="1.0" standalone="no"?>
<!DOCTYPE svg PUBLIC "-//W3C//DTD SVG 20010904//EN"
 "http://www.w3.org/TR/2001/REC-SVG-20010904/DTD/svg10.dtd">
<svg version="1.0" xmlns="http://www.w3.org/2000/svg"
 width="500.000000pt" height="500.000000pt" viewBox="0 0 500.000000 500.000000"
 preserveAspectRatio="xMidYMid meet">

<g transform="translate(0.000000,500.000000) scale(0.100000,-0.100000)"
fill="#000000" stroke="none">
<path d="M3055 4813 c-11 -2 -56 -11 -100 -19 -199 -38 -465 -153 -642 -277
-48 -34 -138 -111 -198 -172 -232 -231 -373 -505 -450 -869 -15 -70 -35 -132
-54 -167 -133 -242 -254 -630 -271 -869 -5 -69 -16 -174 -24 -235 -54 -392
-64 -1043 -26 -1585 13 -182 27 -230 83 -288 54 -57 102 -77 187 -77 64 0 82
4 122 27 61 37 105 91 124 155 12 43 13 72 5 170 -21 244 -33 652 -26 893 3
135 9 254 11 266 5 20 7 21 62 8 31 -8 96 -14 144 -14 l86 0 6 -37 c3 -21 11
-78 16 -128 60 -507 198 -1121 279 -1232 108 -149 352 -128 435 38 38 78 35
135 -18 320 -53 186 -116 483 -150 714 -26 177 -68 527 -63 531 1 2 52 8 112
14 143 14 222 34 320 79 110 51 184 121 232 218 34 69 38 85 41 175 6 131 -14
211 -88 363 -62 129 -166 282 -277 410 -38 44 -86 112 -106 150 -118 224 -330
356 -579 359 -49 1 -88 5 -88 9 0 15 43 92 92 165 95 141 248 281 402 367 137
77 343 143 501 161 127 14 195 82 195 194 0 119 -78 191 -207 189 -37 -1 -77
-3 -88 -6z m-200 -2154 c49 -97 68 -174 52 -208 -16 -33 -103 -69 -188 -78
-57 -6 -61 -5 -56 13 61 200 129 360 148 349 5 -4 25 -38 44 -76z"/>
<path d="M3027 4355 c-132 -36 -275 -151 -331 -266 -103 -212 -64 -451 99
-614 205 -205 541 -201 743 9 199 207 198 529 -2 730 -68 68 -152 117 -241
141 -71 18 -202 18 -268 0z"/>
</g>
</svg>
