<?xml version="1.0" standalone="no"?>
<!DOCTYPE svg PUBLIC "-//W3C//DTD SVG 20010904//EN"
 "http://www.w3.org/TR/2001/REC-SVG-20010904/DTD/svg10.dtd">
<svg version="1.0" xmlns="http://www.w3.org/2000/svg"
 width="512.000000pt" height="512.000000pt" viewBox="0 0 512.000000 512.000000"
 preserveAspectRatio="xMidYMid meet">

<g transform="translate(0.000000,512.000000) scale(0.100000,-0.100000)"
fill="#000000" stroke="none">
<path d="M3020 5109 c-260 -29 -521 -114 -740 -239 -88 -50 -120 -84 -120
-125 0 -32 32 -77 64 -90 39 -17 66 -11 127 27 75 45 248 124 347 157 183 60
293 76 532 75 184 0 230 -3 320 -23 232 -49 471 -154 660 -288 122 -87 306
-272 392 -393 242 -342 352 -759 307 -1168 -63 -584 -417 -1090 -944 -1348
-543 -265 -1185 -221 -1686 114 -380 255 -631 630 -730 1092 -20 91 -23 135
-23 320 0 186 3 229 23 320 41 193 113 378 221 570 23 41 30 63 26 85 -13 65
-85 101 -144 71 -53 -27 -176 -264 -237 -457 -150 -476 -118 -958 93 -1402
l56 -118 -735 -737 c-796 -798 -780 -780 -814 -923 -64 -273 106 -550 376
-614 122 -28 225 -16 349 42 73 34 96 56 811 770 l736 735 109 -53 c562 -268
1229 -246 1763 61 869 498 1205 1578 771 2475 -255 527 -729 902 -1301 1029
-200 44 -417 57 -609 35z m-1267 -3091 c84 -104 177 -196 285 -283 l73 -58
-150 -151 -151 -151 -217 217 -218 218 150 150 c82 82 150 150 151 150 1 0 35
-42 77 -92z m-303 -573 l215 -215 -490 -490 c-548 -548 -531 -534 -665 -534
-95 0 -162 28 -223 93 -56 60 -82 127 -82 211 0 131 -16 112 529 658 270 270
493 492 496 492 3 0 102 -97 220 -215z"/>
<path d="M3130 4648 c-339 -21 -646 -163 -896 -412 -162 -163 -272 -339 -343
-549 -56 -166 -66 -233 -66 -457 0 -190 3 -213 28 -315 148 -587 603 -1001
1196 -1086 105 -15 379 -6 476 16 277 62 510 190 710 390 218 217 350 474 400
773 21 126 16 405 -9 517 -63 278 -189 509 -390 711 -299 299 -675 440 -1106
412z m353 -218 c423 -95 757 -387 902 -790 88 -245 88 -563 -1 -812 -32 -88
-102 -225 -151 -292 l-35 -49 -38 71 c-20 40 -57 97 -81 129 -83 107 -254 221
-379 253 -25 6 -51 13 -58 15 -8 3 -3 20 19 55 63 103 72 150 77 407 5 277 -4
342 -59 452 -125 250 -426 344 -684 214 -76 -39 -169 -138 -210 -225 -48 -101
-58 -190 -53 -456 5 -240 18 -302 77 -391 17 -25 28 -48 26 -52 -3 -4 -22 -10
-42 -14 -21 -4 -68 -20 -106 -35 -162 -70 -293 -191 -378 -354 l-37 -69 -35
49 c-92 126 -172 321 -202 488 -19 114 -19 308 0 422 96 546 556 964 1105
1002 108 8 265 0 343 -18z m-110 -520 c57 -29 112 -86 137 -144 20 -44 37
-136 25 -136 -4 0 -36 16 -71 36 -91 51 -120 49 -188 -14 -82 -74 -132 -95
-248 -100 l-98 -4 0 54 c0 71 25 163 56 211 27 41 96 95 147 114 54 21 184 12
240 -17z m96 -480 l74 -42 -5 -92 c-6 -109 -30 -172 -90 -233 -117 -120 -316
-118 -429 4 -57 62 -80 118 -82 206 l-2 72 110 6 c125 7 188 27 281 88 33 21
61 37 64 36 3 -1 38 -21 79 -45z m-329 -868 c0 -231 3 -241 65 -262 30 -10 41
-9 73 7 54 26 61 56 61 276 l1 187 108 0 c191 0 311 -47 432 -169 77 -78 118
-145 142 -236 l13 -47 -44 -38 c-105 -91 -292 -183 -458 -226 -133 -35 -363
-44 -503 -20 -188 33 -367 110 -519 223 -71 54 -73 56 -68 91 13 76 74 182
150 257 120 119 234 163 430 164 l117 1 0 -208z"/>
<path d="M1879 4561 c-39 -39 -40 -89 -1 -131 37 -42 78 -48 121 -18 19 13 39
36 44 51 32 98 -90 171 -164 98z"/>
</g>
</svg>
