<?xml version="1.0" standalone="no"?>
<!DOCTYPE svg PUBLIC "-//W3C//DTD SVG 20010904//EN"
 "http://www.w3.org/TR/2001/REC-SVG-20010904/DTD/svg10.dtd">
<svg version="1.0" xmlns="http://www.w3.org/2000/svg"
 width="512.000000pt" height="512.000000pt" viewBox="0 0 512.000000 512.000000"
 preserveAspectRatio="xMidYMid meet">

<g transform="translate(0.000000,512.000000) scale(0.100000,-0.100000)"
fill="#000000" stroke="none">
<path d="M2462 5105 c-211 -48 -386 -216 -448 -430 -18 -65 -24 -180 -11 -261
l7 -51 -127 -6 c-388 -18 -685 -205 -843 -531 -63 -129 -68 -154 -134 -563
-44 -274 -53 -349 -45 -377 6 -20 35 -65 65 -101 l55 -65 -58 0 c-81 0 -175
-24 -263 -68 -110 -53 -232 -177 -288 -292 -74 -149 -72 -115 -72 -1137 l0
-913 -90 0 c-71 0 -99 -4 -130 -20 -45 -23 -80 -80 -80 -130 0 -50 35 -107 80
-130 39 -20 55 -21 380 -18 324 3 340 4 366 24 50 37 69 72 69 124 0 52 -19
87 -69 124 -22 17 -45 22 -127 24 l-99 4 0 597 c0 659 0 654 63 747 17 27 51
63 74 80 44 34 129 71 139 61 4 -3 -14 -172 -39 -376 -50 -401 -50 -416 0
-463 41 -40 66 -45 242 -59 l160 -13 3 -392 c3 -379 4 -394 24 -420 11 -15 33
-37 48 -48 27 -21 39 -21 669 -24 611 -2 644 -1 677 16 19 11 44 31 55 46 19
26 20 44 23 361 l3 333 30 6 c17 3 44 16 61 27 58 41 58 45 58 554 l0 466 683
-3 682 -3 67 -33 c77 -38 130 -92 167 -171 l26 -56 3 -617 3 -618 -93 0 c-147
0 -203 -42 -203 -150 0 -67 20 -102 75 -131 32 -17 63 -19 368 -19 314 0 335
1 372 20 45 23 80 80 80 130 0 50 -35 107 -80 130 -31 16 -59 20 -130 20 l-90
0 0 913 c0 1021 2 988 -71 1137 -83 169 -260 307 -444 345 -38 8 -119 15 -178
15 -94 0 -108 2 -113 18 -29 88 -65 129 -600 682 -459 476 -542 567 -528 575
146 87 248 222 290 385 22 88 15 250 -16 337 -61 174 -201 309 -387 374 -77
27 -226 34 -311 14z m264 -318 c174 -88 219 -317 92 -462 -22 -25 -64 -58 -92
-73 -70 -36 -188 -38 -257 -4 -149 73 -215 250 -147 392 30 63 48 84 100 124
82 62 208 72 304 23z m-635 -743 c173 -30 341 -102 483 -207 40 -30 292 -282
613 -615 502 -519 544 -565 538 -590 -7 -31 -30 -52 -57 -52 -10 0 -107 60
-216 133 -665 449 -650 440 -700 444 -52 5 -97 -18 -136 -70 -21 -28 -21 -39
-24 -503 l-3 -474 -169 0 -170 0 10 26 c15 39 12 158 -6 210 -8 25 -110 212
-225 415 l-210 369 25 117 c31 140 32 187 6 231 -55 89 -172 96 -242 14 -34
-41 -106 -376 -91 -425 5 -17 110 -207 232 -421 145 -257 221 -400 221 -418 0
-38 -40 -78 -79 -78 -38 0 -38 0 -419 453 -240 285 -308 372 -305 390 2 12 23
146 48 299 56 346 76 407 171 528 151 192 410 274 705 224z m1121 -1530 c327
-222 365 -240 481 -230 83 6 159 39 221 96 l45 42 148 -4 c144 -3 150 -4 215
-36 118 -58 187 -163 196 -299 l5 -73 -74 35 c-136 64 -140 65 -886 65 l-673
0 0 306 c0 270 2 305 15 300 9 -3 147 -94 307 -202z m-2252 -101 c-2 -28 -39
-295 -42 -297 -1 -2 -41 -10 -87 -19 -46 -9 -117 -32 -158 -52 l-76 -35 5 73
c10 156 104 276 251 322 47 15 107 19 107 8z m407 -150 c54 -65 104 -126 112
-135 13 -17 6 -18 -121 -18 l-134 0 17 133 c10 72 18 133 18 135 3 8 18 -9
108 -115z m1223 -822 l0 -369 -42 5 c-24 3 -355 30 -735 62 -381 32 -695 59
-697 62 -4 4 59 540 69 587 l5 22 700 0 700 0 0 -369z m-852 -597 l102 -7 0
-268 0 -269 -150 0 -150 0 0 281 0 282 48 -6 c26 -4 93 -9 150 -13z m600 -50
l102 -7 0 -243 0 -244 -150 0 -150 0 0 256 0 257 48 -6 c26 -4 93 -9 150 -13z"/>
</g>
</svg>
