<?xml version="1.0" encoding="UTF-8" standalone="no"?>
<!-- Created with Inkscape (http://www.inkscape.org/) -->

<svg
   width="297mm"
   height="297mm"
   viewBox="0 0 297 297"
   version="1.1"
   id="svg874"
   inkscape:version="1.1.1 (3bf5ae0d25, 2021-09-20, custom)"
   sodipodi:docname="logo-chico.svg"
   inkscape:export-filename="/run/media/alonsobc/The Vault/fisiovive/src/img/logo/chico/logo-chico.png"
   inkscape:export-xdpi="96"
   inkscape:export-ydpi="96"
   xmlns:inkscape="http://www.inkscape.org/namespaces/inkscape"
   xmlns:sodipodi="http://sodipodi.sourceforge.net/DTD/sodipodi-0.dtd"
   xmlns="http://www.w3.org/2000/svg"
   xmlns:svg="http://www.w3.org/2000/svg">
  <sodipodi:namedview
     id="namedview876"
     pagecolor="#505050"
     bordercolor="#ffffff"
     borderopacity="1"
     inkscape:pageshadow="0"
     inkscape:pageopacity="0"
     inkscape:pagecheckerboard="1"
     inkscape:document-units="mm"
     showgrid="false"
     inkscape:zoom="0.25921545"
     inkscape:cx="-474.50876"
     inkscape:cy="-42.435743"
     inkscape:window-width="1920"
     inkscape:window-height="997"
     inkscape:window-x="1366"
     inkscape:window-y="0"
     inkscape:window-maximized="1"
     inkscape:current-layer="layer1"
     width="297mm" />
  <defs
     id="defs871" />
  <g
     inkscape:label="Layer 1"
     inkscape:groupmode="layer"
     id="layer1">
    <ellipse
       style="fill:#ffffff;fill-opacity:0.501961;stroke-width:0.540844"
       id="path2540-3-6"
       transform="matrix(-0.86278323,0.50557403,0.52110616,0.85349187,0,0)"
       ry="29.496447"
       rx="21.889874"
       cy="139.57393"
       cx="-103.92041" />
    <path
       style="fill:#ffffff;fill-opacity:0.501961;fill-rule:evenodd;stroke-width:0.255271"
       d="m 166.59836,289.29484 c 0.094,-0.2457 2.38924,-4.70123 5.10071,-9.90118 3.38105,-6.48406 5.13369,-10.13319 5.57847,-11.61479 2.87746,-9.58486 4.83002,-19.77634 5.84258,-30.49536 0.44437,-4.7041 0.4458,-19.52395 0,-24.25069 -2.02571,-21.59099 -8.51418,-41.58939 -19.32201,-60.44194 -20.1222,-35.10004 -54.1454,-62.188775 -87.129269,-69.326934 -1.0414,-0.225377 -5.516646,-0.767184 -10.007823,-1.30724 l -10.613476,-1.308749 6.915683,-0.423642 c 11.874563,-0.727414 14.362681,-0.51559 18.632078,-0.857739 10.391392,-0.832768 11.37601,-0.970082 14.783977,-0.726536 32.81764,2.345318 71.04295,33.53598 88.92559,72.36873 14.32721,31.11195 15.81379,63.33041 4.92948,95.12175 -2.14172,6.25564 -4.02455,10.71016 -7.32014,17.3182 -4.21834,8.45828 -8.63012,15.76323 -14.06794,23.29341 -2.10124,2.90976 -2.60513,3.48135 -2.2502,2.55271 z"
       id="path24234"
       sodipodi:nodetypes="cssscssscssssssscc" />
    <path
       style="fill:#ffffff;fill-opacity:0.501961;fill-rule:evenodd;stroke-width:0.255271"
       d="m 196.96037,104.56548 c -0.26196,-0.68278 0.68074,-3.26846 2.89348,-7.935923 2.68361,-5.660766 3.83759,-8.843763 5.15365,-14.215126 2.78282,-11.357497 3.94236,-21.958713 3.95966,-36.200761 0.0116,-9.529495 -0.1368,-12.086954 -1.02921,-17.741285 -0.88485,-5.606577 -1.60967,-7.836725 -5.14395,-15.82676 -1.99336,-4.5064344 -3.0228,-7.2088175 -2.82247,-7.4091314 0.27186,-0.2718983 5.74256,4.1984213 8.0038,6.5402654 6.38982,6.61753 9.99551,14.727895 11.12167,25.016311 0.36911,3.372192 0.14298,12.682055 -0.39638,16.312899 -1.37907,9.284652 -4.19588,19.270179 -8.31263,29.467865 -3.98834,9.879664 -6.32821,14.273519 -10.35166,19.438696 -1.80773,2.32069 -2.83719,3.17511 -3.07596,2.55295 z"
       id="path24273" />
    <path
       style="fill:#ffffff;fill-opacity:0.998722;stroke:#ffffff;stroke-width:0.825182;stroke-dashoffset:2.4"
       d="m 166.69514,289.39888 c -0.004,-0.15846 2.31743,-4.86788 5.15966,-10.46536 5.53136,-10.89342 6.11552,-12.51083 8.43313,-23.34917 2.1802,-10.19575 2.71417,-15.29262 2.90272,-27.70735 0.18963,-12.48599 -0.0305,-16.06795 -1.56841,-25.52169 C 177.47955,176.8896 165.80281,151.63 148.39832,130.48394 143.68293,124.75486 132.49903,113.56231 127.12858,109.19775 114.29678,98.769371 101.58893,91.40454 88.033378,86.540123 82.038359,84.388812 76.424041,83.203026 66.363916,81.963371 54.834075,80.542611 54.885181,80.510502 69.703708,79.86505 c 5.209194,-0.226898 12.776947,-0.661609 16.817227,-0.966025 4.040277,-0.304416 8.424907,-0.453356 9.74362,-0.330975 20.139365,1.868993 40.445755,12.422399 59.371705,30.856 22.65122,22.06196 36.77209,49.64358 40.83412,79.75933 0.8042,5.96235 1.08027,18.2089 0.55723,24.71992 -1.88316,23.44286 -10.05818,45.82925 -24.77531,67.84446 -4.26145,6.37469 -5.54355,8.13988 -5.55716,7.65112 z"
       id="path1091" />
    <path
       style="fill:#ffffff;fill-opacity:0.998722;stroke:#ffffff;stroke-width:0.825182;stroke-dashoffset:2.4"
       d="m 165.06317,93.732879 c -5.95025,-1.119495 -11.5945,-4.353248 -16.3663,-9.376717 -9.03631,-9.512879 -12.84097,-22.920216 -9.40149,-33.130154 2.53068,-7.512224 8.88478,-12.180659 16.55109,-12.160305 14.29007,0.03794 28.6157,14.632847 30.70031,31.277374 1.50343,12.004114 -4.7478,21.946487 -14.80742,23.550695 -2.86281,0.456531 -3.47263,0.441833 -6.67619,-0.160893 z"
       id="path1130" />
    <path
       style="fill:#ffffff;fill-opacity:0.998722;stroke:#ffffff;stroke-width:0.825182;stroke-dashoffset:2.4"
       d="m 197.0072,103.92669 c 0.007,-0.81783 0.91741,-3.10837 4.26884,-10.736027 5.33197,-12.135234 7.97473,-30.161351 7.5378,-51.414939 -0.27508,-13.381209 -1.05796,-17.27961 -5.65472,-28.157963 -3.1819,-7.5300512 -3.40302,-8.108478 -3.18364,-8.3278562 0.2912,-0.2912031 5.63283,4.0627871 8.12175,6.6200882 14.25949,14.651221 14.99973,38.963773 2.16162,70.995739 -3.80112,9.48404 -7.61924,16.398602 -11.20032,20.283618 -1.61186,1.74867 -2.06087,1.91006 -2.05133,0.73734 z"
       id="path1169" />
  </g>
</svg>
